HIERARCHY
ROOT Hips
{
    OFFSET   0.000000   0.000000   0.000000
    CHANNELS 6 Xposition Yposition Zposition Zrotation Xrotation Yrotation
    JOINT Chest
    {
        OFFSET   0.000000   8.007230   0.000000
        CHANNELS 3 Zrotation Xrotation Yrotation
        JOINT Chest2
        {
            OFFSET   0.000000  22.077100   0.000000
            CHANNELS 3 Zrotation Xrotation Yrotation
            JOINT Neck
            {
                OFFSET   0.000000  23.254700   0.000000
                CHANNELS 3 Zrotation Xrotation Yrotation
                JOINT Head
                {
                    OFFSET   0.000010  14.370000   1.956610
                    CHANNELS 3 Zrotation Xrotation Yrotation
                    End Site
                    {
                        OFFSET   0.000000  19.566000   0.000000
                    }
                }
            }
            JOINT LeftCollar
            {
                OFFSET   3.911900  19.017000  -0.467063
                CHANNELS 3 Zrotation Xrotation Yrotation
                JOINT LeftShoulder
                {
                    OFFSET  10.383700   0.000000   0.000000
                    CHANNELS 3 Zrotation Xrotation Yrotation
                    JOINT LeftElbow
                    {
                        OFFSET  26.662100   0.001671   0.000522
                        CHANNELS 3 Zrotation Xrotation Yrotation
                        JOINT LeftWrist
                        {
                            OFFSET  28.869000   0.000037  -0.000114
                            CHANNELS 3 Zrotation Xrotation Yrotation
                            JOINT LeftFinger0
                            {
                                OFFSET   2.044650  -2.323450   3.252850
                                CHANNELS 3 Zrotation Xrotation Yrotation
                                JOINT LeftFinger01
                                {
                                    OFFSET   3.088140   0.000000   0.000000
                                    CHANNELS 3 Zrotation Xrotation Yrotation
                                    JOINT LeftFinger02
                                    {
                                        OFFSET   2.639460   0.000000   0.000000
                                        CHANNELS 3 Zrotation Xrotation Yrotation
                                        End Site
                                        {
                                            OFFSET   2.582190   0.000000   0.000000
                                        }
                                    }
                                }
                            }
                            JOINT LeftFinger1
                            {
                                OFFSET   8.364480   0.000000   3.252850
                                CHANNELS 3 Zrotation Xrotation Yrotation
                                JOINT LeftFinger11
                                {
                                    OFFSET   4.646930   0.000000   0.000000
                                    CHANNELS 3 Zrotation Xrotation Yrotation
                                    JOINT LeftFinger12
                                    {
                                        OFFSET   2.323470   0.000000   0.000000
                                        CHANNELS 3 Zrotation Xrotation Yrotation
                                        End Site
                                        {
                                            OFFSET   2.273050   0.000000   0.000000
                                        }
                                    }
                                }
                            }
                            JOINT LeftFinger2
                            {
                                OFFSET   8.364490   0.000016   1.078090
                                CHANNELS 3 Zrotation Xrotation Yrotation
                                JOINT LeftFinger21
                                {
                                    OFFSET   5.111620   0.000000   0.000000
                                    CHANNELS 3 Zrotation Xrotation Yrotation
                                    JOINT LeftFinger22
                                    {
                                        OFFSET   2.788150   0.000013   0.000000
                                        CHANNELS 3 Zrotation Xrotation Yrotation
                                        End Site
                                        {
                                            OFFSET   2.727660   0.000000   0.000000
                                        }
                                    }
                                }
                            }
                            JOINT LeftFinger3
                            {
                                OFFSET   7.899780   0.000016  -1.078090
                                CHANNELS 3 Zrotation Xrotation Yrotation
                                JOINT LeftFinger31
                                {
                                    OFFSET   4.646930   0.000000   0.000000
                                    CHANNELS 3 Zrotation Xrotation Yrotation
                                    JOINT LeftFinger32
                                    {
                                        OFFSET   2.323470   0.000000   0.000000
                                        CHANNELS 3 Zrotation Xrotation Yrotation
                                        End Site
                                        {
                                            OFFSET   2.273050   0.000000   0.000000
                                        }
                                    }
                                }
                            }
                            JOINT LeftFinger4
                            {
                                OFFSET   7.435080   0.000000  -3.252850
                                CHANNELS 3 Zrotation Xrotation Yrotation
                                JOINT LeftFinger41
                                {
                                    OFFSET   3.717550   0.000000   0.000000
                                    CHANNELS 3 Zrotation Xrotation Yrotation
                                    JOINT LeftFinger42
                                    {
                                        OFFSET   1.858760   0.000000   0.000000
                                        CHANNELS 3 Zrotation Xrotation Yrotation
                                        End Site
                                        {
                                            OFFSET   1.818440   0.000000   0.000000
                                        }
                                    }
                                }
                            }
                        }
                    }
                }
            }
            JOINT RightCollar
            {
                OFFSET  -3.911900  19.017000  -0.467064
                CHANNELS 3 Zrotation Xrotation Yrotation
                JOINT RightShoulder
                {
                    OFFSET -10.383700   0.000000   0.000000
                    CHANNELS 3 Zrotation Xrotation Yrotation
                    JOINT RightElbow
                    {
                        OFFSET -26.662100   0.001633   0.000260
                        CHANNELS 3 Zrotation Xrotation Yrotation
                        JOINT RightWrist
                        {
                            OFFSET -28.869000  -0.000045  -0.000080
                            CHANNELS 3 Zrotation Xrotation Yrotation
                            JOINT RightFinger0
                            {
                                OFFSET  -2.044660  -2.323490   3.252850
                                CHANNELS 3 Zrotation Xrotation Yrotation
                                JOINT RightFinger01
                                {
                                    OFFSET  -3.088140   0.000000   0.000000
                                    CHANNELS 3 Zrotation Xrotation Yrotation
                                    JOINT RightFinger02
                                    {
                                        OFFSET  -2.639450   0.000000   0.000000
                                        CHANNELS 3 Zrotation Xrotation Yrotation
                                        End Site
                                        {
                                            OFFSET  -2.582190   0.000000   0.000000
                                        }
                                    }
                                }
                            }
                            JOINT RightFinger1
                            {
                                OFFSET  -8.364480   0.000000   3.252850
                                CHANNELS 3 Zrotation Xrotation Yrotation
                                JOINT RightFinger11
                                {
                                    OFFSET  -4.646920   0.000000   0.000000
                                    CHANNELS 3 Zrotation Xrotation Yrotation
                                    JOINT RightFinger12
                                    {
                                        OFFSET  -2.323470   0.000000   0.000000
                                        CHANNELS 3 Zrotation Xrotation Yrotation
                                        End Site
                                        {
                                            OFFSET  -2.273050   0.000000   0.000000
                                        }
                                    }
                                }
                            }
                            JOINT RightFinger2
                            {
                                OFFSET  -8.364480   0.000000   1.078090
                                CHANNELS 3 Zrotation Xrotation Yrotation
                                JOINT RightFinger21
                                {
                                    OFFSET  -5.111610   0.000000   0.000000
                                    CHANNELS 3 Zrotation Xrotation Yrotation
                                    JOINT RightFinger22
                                    {
                                        OFFSET  -2.788160   0.000000   0.000000
                                        CHANNELS 3 Zrotation Xrotation Yrotation
                                        End Site
                                        {
                                            OFFSET  -2.727660   0.000000   0.000000
                                        }
                                    }
                                }
                            }
                            JOINT RightFinger3
                            {
                                OFFSET  -7.899780   0.000000  -1.078090
                                CHANNELS 3 Zrotation Xrotation Yrotation
                                JOINT RightFinger31
                                {
                                    OFFSET  -4.646930   0.000000   0.000000
                                    CHANNELS 3 Zrotation Xrotation Yrotation
                                    JOINT RightFinger32
                                    {
                                        OFFSET  -2.323470   0.000000   0.000000
                                        CHANNELS 3 Zrotation Xrotation Yrotation
                                        End Site
                                        {
                                            OFFSET  -2.273050   0.000000   0.000000
                                        }
                                    }
                                }
                            }
                            JOINT RightFinger4
                            {
                                OFFSET  -7.435090   0.000000  -3.252850
                                CHANNELS 3 Zrotation Xrotation Yrotation
                                JOINT RightFinger41
                                {
                                    OFFSET  -3.717550   0.000000   0.000000
                                    CHANNELS 3 Zrotation Xrotation Yrotation
                                    JOINT RightFinger42
                                    {
                                        OFFSET  -1.858760   0.000000   0.000000
                                        CHANNELS 3 Zrotation Xrotation Yrotation
                                        End Site
                                        {
                                            OFFSET  -1.818440   0.000000   0.000000
                                        }
                                    }
                                }
                            }
                        }
                    }
                }
            }
        }
    }
    JOINT LeftHip
    {
        OFFSET   9.782990   0.000000   0.000000
        CHANNELS 3 Zrotation Xrotation Yrotation
        JOINT LeftKnee
        {
            OFFSET  -0.000063 -41.789100   0.001657
            CHANNELS 3 Zrotation Xrotation Yrotation
            JOINT LeftAnkle
            {
                OFFSET   0.000078 -41.133200  -0.000113
                CHANNELS 3 Zrotation Xrotation Yrotation
                JOINT LeftToe
                {
                    OFFSET   0.000000  -6.358970  14.674500
                    CHANNELS 3 Zrotation Xrotation Yrotation
                    End Site
                    {
                        OFFSET   0.000000   0.000000   3.913200
                    }
                }
            }
        }
    }
    JOINT RightHip
    {
        OFFSET  -9.782990   0.000000   0.000000
        CHANNELS 3 Zrotation Xrotation Yrotation
        JOINT RightKnee
        {
            OFFSET   0.000053 -41.789200   0.000277
            CHANNELS 3 Zrotation Xrotation Yrotation
            JOINT RightAnkle
            {
                OFFSET   0.000030 -41.133200  -0.000150
                CHANNELS 3 Zrotation Xrotation Yrotation
                JOINT RightToe
                {
                    OFFSET   0.000000  -6.358960  14.674500
                    CHANNELS 3 Zrotation Xrotation Yrotation
                    End Site
                    {
                        OFFSET   0.000000   0.000000   3.913200
                    }
                }
            }
        }
    }
}
MOTION
Frames: 6
Frame Time:   0.016667
 -4.974280  89.181100   4.332750  -1.814120 -14.385500  -1.409730   1.368100   9.179630  -0.015284   2.793670  18.356200  -0.261112   4.276790  -0.608225   0.045396   7.028290  -1.213160  -8.598640  -3.847460  -1.507990  -1.050030 -68.844800  20.900700  -7.982640  -3.950890  -7.612110 -11.643700   8.776510  -7.042840   0.179080  38.263200  24.630200 -61.672200 -24.407900   0.000000   0.000000  -7.203970   0.002564  -0.000000 -22.933300   4.502660 -10.512100 -19.102400   0.004479   0.007328 -13.371700  -0.003070   0.006859 -26.357800   0.052255  -0.105771 -26.357400   0.001284   0.000866 -17.554000  -0.003507   0.000000 -25.464500   0.050580  -0.106580 -25.464200   0.000599  -0.000291 -16.959100   0.000765   0.003106 -24.530100   0.048816  -0.107391 -36.794600  -0.007719   0.001071 -24.505200  -0.005993  -0.000097   4.787880  -3.546900   6.958170   4.564070 -24.501900  23.027400  -8.709890   1.655840   0.000436 -20.557800   6.126710   3.333470 -41.337000  48.359400  85.219700  46.276800  -0.001416   0.001651  20.785200   0.001638  -0.003369   7.702710   2.282330  16.409300   6.571500   0.001712   0.001625   4.600040  -0.006397   0.001168  89.000000  -0.003026  -0.013092 110.001000   0.004304  -0.003054  80.000000   0.001799  -0.002000  88.996200  -5.002110  -0.087484  98.625900   0.001200  -0.001914  73.969400  -0.001753  -0.001180  88.984600 -10.001700  -0.176308 110.000000  -0.000384  -0.000195  80.000000  -0.000166   0.000420   3.973030  16.605300   4.864790   2.583650   2.213890   6.124340  -5.234240  -3.819010  -2.401910  -0.000000   0.000000   0.000000   4.972690  17.627100  -2.289010   0.808581   1.752990  -8.595840  -1.167290  -6.093030   2.392170  -0.000000   0.000000  -0.000000
 -5.010970  89.189300   4.332290  -1.779160 -14.379800  -1.404610   1.334030   9.173480  -0.000443   2.721950  18.344500  -0.224970   4.313690  -0.608187   0.045945   7.088370  -1.212550  -8.547600  -3.841610  -1.491710  -1.063590 -68.804600  21.057700  -8.065490  -3.941510  -7.734590 -11.629000   8.737260  -6.762180   0.177202  38.276700  24.630800 -61.656300 -24.363100   0.000000   0.000000  -7.181580   0.002518  -0.000000 -22.904300   4.502220 -10.539300 -19.079900   0.004674   0.007416 -13.355900  -0.003059   0.007168 -26.309800   0.070729  -0.143255 -26.309500   0.001217   0.000901 -17.522100  -0.003516   0.000000 -25.415500   0.068488  -0.144335 -25.415200   0.000586  -0.000266 -16.926500   0.000712   0.003077 -24.466500   0.066044  -0.145474 -36.699500  -0.007719   0.001069 -24.441900  -0.005994  -0.000140   4.787270  -3.503350   6.963460   4.530520 -24.463000  23.016900  -8.615090   1.668680   0.000424 -20.444700   6.186020   3.342190 -41.191800  48.212400  85.025900  46.278600  -0.001238   0.001502  20.786800   0.001841  -0.003443   7.659260   2.280830  16.522600   6.537000   0.001326   0.001624   4.575890  -0.006933   0.001120  89.000000  -0.002993  -0.013006 110.001000   0.004324  -0.003237  80.000000   0.001778  -0.001977  88.996200  -5.002040  -0.087482  98.627600   0.001226  -0.002042  73.970700  -0.001781  -0.001218  88.984600 -10.001500  -0.176306 110.000000  -0.000381  -0.000161  80.000000  -0.000081   0.000329   3.958460  16.583500   4.822600   2.586110   2.257650   6.147630  -5.248110  -3.815560  -2.389550   0.000000   0.000000   0.000000   4.958130  17.613000  -2.316300   0.812431   1.777880  -8.559290  -1.177650  -6.120110   2.382970  -0.000000   0.000000   0.000000
 -5.045100  89.196800   4.329040  -1.749950 -14.370900  -1.393640   1.300430   9.166330   0.022241   2.649170  18.330900  -0.172854   4.347920  -0.608148   0.046437   7.145280  -1.211820  -8.537070  -3.837890  -1.481310  -1.085440 -68.752700  21.212400  -8.162960  -3.926510  -7.791410 -11.623100   8.724000  -6.483740   0.170322  38.309700  24.598400 -61.597100 -24.324900   0.000000  -0.000000  -7.162460   0.002470  -0.000000 -22.858600   4.501820 -10.546400 -19.042400   0.004869   0.007497 -13.329700  -0.003036   0.007482 -26.261800   0.074605  -0.151181 -26.261600   0.001150   0.000941 -17.490200  -0.003528   0.000000 -25.361400   0.072256  -0.152308 -25.361300   0.000572  -0.000234 -16.890600   0.000655   0.003049 -24.403100   0.069635  -0.153542 -36.604400  -0.007719   0.001068 -24.378500  -0.005995  -0.000182   4.791920  -3.468190   6.964300   4.504710 -24.424500  22.997000  -8.553380   1.670510   0.000413 -20.288100   6.196740   3.350610 -41.119100  48.138400  84.929000  46.280400  -0.001048   0.001226  20.788500   0.002032  -0.003524   7.587630   2.278590  16.611600   6.480310   0.000935   0.001623   4.536210  -0.007470   0.001068  89.000000  -0.002960  -0.012915 110.001000   0.004339  -0.003424  80.000000   0.001757  -0.001952  88.996200  -5.001970  -0.087480  98.629300   0.001236  -0.002172  73.972000  -0.001804  -0.001248  88.984600 -10.001400  -0.176305 110.000000  -0.000378  -0.000127  80.000000   0.000000   0.000239   3.956920  16.566800   4.801370   2.585290   2.273460   6.154320  -5.266200  -3.806610  -2.380560   0.000000   0.000000   0.000000   4.937670  17.602500  -2.327520   0.822123   1.789010  -8.536670  -1.182370  -6.136790   2.362210  -0.000000   0.000000   0.000000
 -5.075570  89.203900   4.320720  -1.730370 -14.355200  -1.363630   1.276860   9.159100   0.036538   2.598600  18.316800  -0.139551   4.359400  -0.615420   0.046875   7.165940  -1.226480  -8.544270  -3.847730  -1.485820  -1.102950 -68.692900  21.331900  -8.255260  -3.913450  -7.755980 -11.650900   8.747790  -6.363440   0.128000  38.284200  24.448400 -61.426400 -24.312300   0.000000   0.000000  -7.156140   0.002425   0.000000 -22.814300   4.496050 -10.550600 -19.009900   0.005072   0.007568 -13.306900  -0.003007   0.007795 -26.263400   0.067381  -0.136482 -26.263200   0.001081   0.000986 -17.491300  -0.003541  -0.000048 -25.355300   0.065219  -0.137521 -25.355500   0.000559  -0.000199 -16.886700   0.000595   0.003023 -24.408800   0.062928  -0.138596 -36.613200  -0.007717   0.001068 -24.384400  -0.005995  -0.000225   4.801450  -3.452980   6.964800   4.509880 -24.397400  22.965100  -8.546590   1.667770   0.000404 -20.019200   6.179150   3.311460 -41.475400  48.442300  85.402300  46.167600  -0.000850   0.000917  20.668000   0.002223  -0.003615   7.461140   2.256160  16.704200   6.376110   0.000540   0.001615   4.463270  -0.008010   0.001013  89.000000  -0.002929  -0.012818 110.001000   0.004355  -0.003619  80.000000   0.001740  -0.001925  88.996200  -5.001900  -0.087479  98.607600   0.001230  -0.002301  73.955700  -0.001830  -0.001277  88.984600 -10.001200  -0.176305 110.000000  -0.000372  -0.000098  80.000000   0.000069   0.000151   3.972570  16.543500   4.806580   2.574530   2.272310   6.116550  -5.288010  -3.793540  -2.380900  -0.000000   0.000000  -0.000000   4.915710  17.594100  -2.310720   0.848924   1.777650  -8.545010  -1.180110  -6.139940   2.332660  -0.000000   0.000000   0.000000
 -5.099950  89.210700   4.309770  -1.714070 -14.335000  -1.323140   1.257870   9.149730   0.047456   2.557940  18.298300  -0.113868   4.361060  -0.628183   0.047285   7.166790  -1.252110  -8.561240  -3.867380  -1.490330  -1.116360 -68.633300  21.425300  -8.344470  -3.901360  -7.711080 -11.707800   8.782280  -6.332000   0.057591  38.232600  24.270600 -61.249900 -24.285200   0.000000  -0.000000  -7.142600   0.002373   0.000000 -22.785600   4.490490 -10.557700 -18.982400   0.005277   0.007636 -13.287700  -0.002972   0.008113 -26.274500   0.060157  -0.121784 -26.274600   0.001012   0.001035 -17.498900  -0.003558  -0.000122 -25.354500   0.058181  -0.122734 -25.354700   0.000545  -0.000152 -16.886200   0.000530   0.002993 -24.437200   0.056222  -0.123649 -36.656000  -0.007716   0.001068 -24.412900  -0.005994  -0.000267   4.811810  -3.443730   6.964820   4.523810 -24.353600  22.923400  -8.541330   1.665030   0.000394 -19.716200   6.151890   3.232570 -41.882000  48.745900  85.938100  45.997500  -0.000636   0.000626  20.486300   0.002402  -0.003709   7.309110   2.222690  16.824200   6.249330   0.000143   0.001605   4.374530  -0.008551   0.000952  89.000000  -0.002899  -0.012718 110.001000   0.004364  -0.003817  80.000000   0.001723  -0.001897  88.996200  -5.001840  -0.087478  98.549100   0.001213  -0.002432  73.911900  -0.001856  -0.001291  88.984600 -10.001100  -0.176305 110.000000  -0.000366  -0.000069  80.000000   0.000133   0.000062   3.994960  16.519700   4.814040   2.555720   2.263370   6.061740  -5.306640  -3.775150  -2.383440  -0.000000   0.000000  -0.000000   4.893490  17.590400  -2.283360   0.883159   1.748410  -8.564580  -1.172160  -6.140510   2.300290   0.000000   0.000000   0.000000
 -5.115830  89.217700   4.298270  -1.695280 -14.311400  -1.273480   1.241950   9.136470   0.053972   2.524250  18.271900  -0.097585   4.346540  -0.640659   0.047698   7.142170  -1.276790  -8.593090  -3.891790  -1.489830  -1.120670 -68.587100  21.488400  -8.426280  -3.880500  -7.699150 -11.773100   8.790100  -6.383690  -0.041470  38.241900  24.158200 -61.208000 -24.167100   0.000000   0.000044  -7.083590   0.002305   0.000000 -22.763100   4.542890 -10.693700 -18.970800   0.005476   0.007705 -13.279600  -0.002931   0.008439 -26.330200   0.106459  -0.214983 -26.330600   0.000944   0.001088 -17.536200  -0.003581  -0.000166 -25.392400   0.102916  -0.216694 -25.392700   0.000535  -0.000078 -16.911600   0.000463   0.002943 -24.521700   0.099629  -0.218223 -36.783100  -0.007719   0.001066 -24.497500  -0.005995  -0.000309   4.817060  -3.430220   6.964310   4.487690 -24.247500  22.863800  -8.513580   1.760490   0.000373 -19.422200   6.133680   3.112800 -41.932200  48.744400  85.999800  45.881400  -0.000390   0.000481  20.362600   0.002557  -0.003802   7.132930   2.195360  17.032600   6.104970  -0.000255   0.001598   4.273480  -0.009095   0.000880  89.000000  -0.002871  -0.012616 110.001000   0.004364  -0.004014  80.000000   0.001703  -0.001868  88.996200  -5.001770  -0.087479  98.430500   0.001187  -0.002567  73.823000  -0.001880  -0.001291  88.984600 -10.000900  -0.176304 110.000000  -0.000362  -0.000027  80.000000   0.000192  -0.000033   4.010100  16.497400   4.816690   2.538460   2.234770   6.031340  -5.314810  -3.749880  -2.406590   0.000000   0.000000   0.000000   4.875530  17.590700  -2.261470   0.913238   1.699550  -8.593810  -1.160500  -6.129330   2.271070   0.000000   0.000000  -0.000000
